# xmcd
#
# Track frame offsets:
#	150
#	16634
#	35961
#	54590
#	76668
#	102239
#	126509
#	148838
#	157905
#	175475
#	197777
#
# Disc length: 2916 seconds
#
# Revision: 2
# Processed by: cddbd v1.5.2PL0 Copyright (c) Steve Scherf et al.
# Submitted via: Jack! The Knife
#
DISCID=930b620b
DTITLE=Lacuna Coil - The EPs
DYEAR=2005
DGENRE=Gothic
TTITLE0=No Need To Explain
TTITLE1=The Secret
TTITLE2=This Is My Dream
TTITLE3=Soul Into Hades
TTITLE4=Falling
TTITLE5=Un Fantasma Tra Noi
TTITLE6=Halflife
TTITLE7=Trance Awake
TTITLE8=Senzafine
TTITLE9=Hyperfast
TTITLE10=Stars
EXTD=Waldemar Sorychta
EXTT0=
EXTT1=
EXTT2=
EXTT3=
EXTT4=
EXTT5=
EXTT6=
EXTT7=
EXTT8=
EXTT9=
EXTT10=
PLAYORDER=
